#!OML:ASF F:\VICON\USERDATA\INSTALL\SteveWalk\SteveWalk.ASF
:FULLY-SPECIFIED
:DEGREES
136
root -0.202265 16.4445 -15.7653 17.7998 4.57741 0.396512
lowerback -15.7063 -0.727389 -0.0694595
upperback -5.459 -1.00021 1.50297
thorax 3.03787 -0.481612 1.43706
lowerneck -5.17954 -1.48701 1.2369
upperneck 9.52933 -1.90234 -2.11329
head 4.00289 -0.991993 -1.01931
rclavicle 2.76746e-015 -1.07344e-014
rhumerus -27.4297 -8.77278 -83.9003
rradius 29.3521
rwrist -4.55821
rhand -16.4352 -35.3992
rfingers 7.12502
rthumb 9.78033 -65.1521
lclavicle 2.76746e-015 -1.07344e-014
lhumerus -41.9464 10.7677 80.1034
lradius 16.3639
lwrist -23.7112
lhand -6.753 -13.9508
lfingers 7.12502
lthumb 19.1084 15.1305
rfemur -27.2117 -4.52258 26.0145
rtibia 34.8446
rfoot -25.7 2.04009
rtoes -8.09272
lfemur -45.7089 1.41035 -20.7346
ltibia 65.8454
lfoot -7.66417 5.02558
ltoes -0.0324364
137
root -0.18584 16.4363 -15.5344 17.6592 4.05113 0.501703
lowerback -15.8519 -0.507883 -0.0544694
upperback -5.37819 -0.707514 1.30665
thorax 3.19026 -0.338554 1.27408
lowerneck -4.93102 -1.46805 1.34075
upperneck 9.47775 -1.88189 -2.13794
head 3.93467 -0.978244 -1.04045
rclavicle -5.98528e-015 -3.57812e-015
rhumerus -25.7958 -7.47169 -84.587
rradius 29.8067
rwrist -5.75335
rhand -16.1406 -35.2474
rfingers 7.12502
rthumb 10.0645 -64.9867
lclavicle -5.98528e-015 -3.57812e-015
lhumerus -43.3489 12.7875 78.0659
lradius 15.3439
lwrist -27.6234
lhand -4.51804 -13.0153
lfingers 7.12502
lthumb 21.2564 15.8391
rfemur -26.0532 -4.98219 25.7889
rtibia 34.5534
rfoot -26.3304 2.76112
rtoes -8.07656
lfemur -46.2154 1.60843 -21.1546
ltibia 63.8193
lfoot -8.79985 5.91548
ltoes -2.00555
138
root -0.179933 16.4233 -15.3246 17.7222 3.67284 0.482943
lowerback -15.8465 -0.332558 -0.0437182
upperback -5.41042 -0.473012 1.18793
thorax 3.1469 -0.222922 1.18607
lowerneck -4.7578 -1.47187 1.45513
upperneck 9.34319 -1.89362 -2.16806
head 3.85143 -0.980613 -1.06672
rclavicle -8.20608e-015 8.74653e-015
rhumerus -24.3972 -6.18315 -85.1515
rradius 30.7524
rwrist -6.86773
rhand -15.6996 -35.7737
rfingers 7.12502
rthumb 10.4899 -65.492
lclavicle -8.20608e-015 8.74653e-015
lhumerus -44.8221 14.5112 76.0395
lradius 14.3969
lwrist -31.2162
lhand -6.0786 -15.2653
lfingers 7.12502
lthumb 19.7568 13.7506
rfemur -25.2287 -5.15597 25.7381
rtibia 34.3188
rfoot -26.8715 3.25245
rtoes -7.63128
lfemur -47.0059 1.78256 -21.3464
ltibia 61.6343
lfoot -9.81505 6.49684
ltoes -4.94399
139
root -0.181954 16.403 -15.1324 17.9977 3.56944 0.512686
lowerback -15.7407 -0.330325 -0.154046
upperback -5.59905 -0.448936 1.14144
thorax 2.89157 -0.209341 1.2045
lowerneck -4.65216 -1.45497 1.47753
upperneck 9.28702 -1.86756 -2.21737
head 3.81084 -0.968704 -1.08346
rclavicle -6.11573e-015 -9.14409e-015
rhumerus -23.3222 -4.8246 -85.6193
rradius 32.084
rwrist -7.78648
rhand -15.4014 -35.6544
rfingers 7.12502
rthumb 10.7776 -65.3579
lclavicle -6.11573e-015 -9.14409e-015
lhumerus -46.4833 16.4864 73.688
lradius 13.5388
lwrist -34.9516
lhand -6.15488 -15.5202
lfingers 7.12502
lthumb 19.6835 13.5033
rfemur -24.6607 -5.40137 25.7413
rtibia 34.0758
rfoot -27.3949 3.86477
rtoes -5.28481
lfemur -48.0262 1.75045 -21.4565
ltibia 59.2614
lfoot -9.15859 6.56889
ltoes 2.21327
140
root -0.178112 16.3819 -14.9298 18.1327 3.38175 0.582736
lowerback -15.6762 -0.325626 -0.254892
upperback -5.66211 -0.425116 1.08782
thorax 2.79053 -0.196839 1.20972
lowerneck -4.79735 -1.37978 1.43511
upperneck 9.36047 -1.76786 -2.17273
head 3.86819 -0.919504 -1.05971
rclavicle 7.14382e-017 -5.1684e-015
rhumerus -22.2359 -3.27141 -86.0355
rradius 33.5228
rwrist -8.96139
rhand -15.1986 -34.9983
rfingers 7.12502
rthumb 10.9732 -64.6915
lclavicle 7.14382e-017 -5.1684e-015
lhumerus -48.2624 18.6293 71.0696
lradius 12.9804
lwrist -38.517
lhand -5.38632 -15.0394
lfingers 7.12502
lthumb 20.4222 13.9067
rfemur -23.8447 -5.84075 25.6562
rtibia 33.7749
rfoot -27.8922 4.57188
rtoes -3.39115
lfemur -48.6713 1.73331 -21.622
ltibia 56.6619
lfoot -10.4031 7.00943
ltoes 3.57195
141
root -0.173279 16.3657 -14.7167 18.0732 2.91139 0.544787
lowerback -15.6367 -0.200324 -0.31815
upperback -5.56518 -0.251206 1.05982
thorax 2.86775 -0.111252 1.24695
lowerneck -4.85343 -1.32777 1.37747
upperneck 9.15387 -1.70027 -2.12691
head 3.80825 -0.886326 -1.02898
rclavicle 9.14254e-015 -8.34896e-015
rhumerus -21.0977 -1.77818 -86.3136
rradius 34.9892
rwrist -10.2593
rhand -14.7842 -34.9482
rfingers 7.12502
rthumb 11.3728 -64.6198
lclavicle 9.14254e-015 -8.34896e-015
lhumerus -50.1146 20.9446 68.0853
lradius 12.5113
lwrist -42.0356
lhand -4.66959 -15.1435
lfingers 7.12502
lthumb 21.1108 13.7273
rfemur -22.7303 -6.05586 25.5503
rtibia 33.3928
rfoot -28.2471 5.27227
rtoes -2.96113
lfemur -48.9878 1.96961 -21.7389
ltibia 53.8517
lfoot -10.7067 7.43115
ltoes -0.000497842
142
root -0.168992 16.358 -14.5029 18.0175 2.28515 0.51004
lowerback -15.6736 -0.0037346 -0.428228
upperback -5.4563 0.0234424 1.03343
thorax 2.99526 0.0242408 1.33075
lowerneck -4.70327 -1.32828 1.43022
upperneck 8.82146 -1.68911 -2.32938
head 3.66062 -0.887 -1.09822
rclavicle -8.94298e-015 9.54166e-015
rhumerus -19.8698 -0.575015 -86.3986
rradius 36.15
rwrist -11.2704
rhand -14.5266 -35.3141
rfingers 7.12502
rthumb 11.6213 -64.9719
lclavicle -8.94298e-015 9.54166e-015
lhumerus -51.9368 22.4608 65.6662
lradius 12.238
lwrist -44.5709
lhand -4.04885 -15.0412
lfingers 7.12502
lthumb 21.7071 13.7618
rfemur -21.5372 -6.12379 25.3721
rtibia 32.8503
rfoot -28.5946 5.9649
rtoes -3.28638
lfemur -49.2178 2.31218 -21.871
ltibia 50.8208
lfoot -10.6996 8.12265
ltoes -3.12932
143
root -0.161568 16.3515 -14.2878 18.0012 1.71049 0.58694
lowerback -15.6648 0.196173 -0.611787
upperback -5.4252 0.316993 0.949889
thorax 3.01483 0.169939 1.39947
lowerneck -4.6807 -1.34309 1.55452
upperneck 8.84577 -1.70194 -2.51265
head 3.66283 -0.896821 -1.18166
rclavicle -4.58292e-015 9.93923e-015
rhumerus -18.9439 0.485086 -86.3875
rradius 37.5285
rwrist -12.3149
rhand -14.8066 -35.319
rfingers 7.12502
rthumb 11.3513 -64.9918
lclavicle -4.58292e-015 9.93923e-015
lhumerus -53.7102 23.2962 63.7454
lradius 12.0871
lwrist -46.2251
lhand -3.54341 -14.3542
lfingers 7.12502
lthumb 22.1924 14.3918
rfemur -20.3219 -6.38205 25.0679
rtibia 32.1646
rfoot -28.9669 6.67815
rtoes -3.58757
lfemur -49.29 2.5686 -22.0832
ltibia 47.6024
lfoot -10.6829 8.39276
ltoes -4.45159
144
root -0.156027 16.3468 -14.0685 17.9484 1.21887 0.604852
lowerback -15.5674 0.357317 -0.7541
upperback -5.42185 0.552192 0.891295
thorax 2.9588 0.287237 1.45933
lowerneck -4.74379 -1.30161 1.41387
upperneck 8.94405 -1.65538 -2.27706
head 3.71271 -0.868803 -1.07877
rclavicle 2.01269e-015 4.77083e-015
rhumerus -18.1308 1.55128 -86.3245
rradius 39.105
rwrist -13.5175
rhand -14.5858 -35.0613
rfingers 7.12502
rthumb 11.5642 -64.7223
lclavicle 2.01269e-015 4.77083e-015
lhumerus -55.6432 24.4139 61.2707
lradius 11.8068
lwrist -48.0087
lhand -3.58634 -13.9329
lfingers 7.12502
lthumb 22.1511 14.8181
rfemur -18.9884 -6.77713 24.816
rtibia 31.3804
rfoot -29.2077 7.51205
rtoes -3.73518
lfemur -49.2153 2.80286 -22.1826
ltibia 44.2435
lfoot -10.7533 8.24588
ltoes -5.51701
145
root -0.154169 16.34 -13.8545 17.9081 0.63667 0.584923
lowerback -15.3858 0.500481 -0.937326
upperback -5.42598 0.766408 0.890764
thorax 2.84842 0.395284 1.59754
lowerneck -4.83764 -1.21027 1.23737
upperneck 8.90402 -1.53858 -2.06609
head 3.72148 -0.808298 -0.972931
rclavicle 1.79846e-014 4.37326e-015
rhumerus -17.0763 2.45189 -86.1177
rradius 40.5785
rwrist -14.9086
rhand -13.2506 -34.5001
rfingers 7.12502
rthumb 12.8516 -64.0844
lclavicle 1.79846e-014 4.37326e-015
lhumerus -57.769 25.8589 58.2201
lradius 11.3897
lwrist -50.2615
lhand -4.04848 -14.0787
lfingers 7.12502
lthumb 21.7074 14.7242
rfemur -17.6627 -6.97549 24.5601
rtibia 30.4985
rfoot -29.2119 8.40403
rtoes -3.95101
lfemur -49.1653 3.05409 -22.1685
ltibia 40.7961
lfoot -10.6557 8.27005
ltoes -7.77754
146
root -0.147183 16.3299 -13.6442 18.0144 0.0217817 0.48494
lowerback -15.2688 0.671639 -0.996617
upperback -5.50903 0.998301 0.919011
thorax 2.68895 0.512733 1.69784
lowerneck -4.91642 -1.16447 1.16334
upperneck 8.92832 -1.46638 -2.11677
head 3.74709 -0.777627 -0.974646
rclavicle 5.10783e-015 3.57812e-015
rhumerus -16.2352 3.77415 -86.0016
rradius 41.5108
rwrist -14.7528
rhand -14.197 -34.7751
rfingers 7.12502
rthumb 11.9391 -64.4147
lclavicle 5.10783e-015 3.57812e-015
lhumerus -59.9121 26.9024 55.442
lradius 11.0526
lwrist -51.9967
lhand -4.03551 -14.1522
lfingers 7.12502
lthumb 21.7199 14.6493
rfemur -16.5035 -7.29945 24.3622
rtibia 29.475
rfoot -29.1375 9.56322
rtoes -4.22529
lfemur -49.1986 3.16821 -21.9461
ltibia 37.2865
lfoot -10.5108 8.18828
ltoes -8.87454
147
root -0.13596 16.32 -13.4248 18.1498 -0.572073 0.224177
lowerback -15.4321 0.875736 -0.802225
upperback -5.50218 1.2372 0.953025
thorax 2.77798 0.629101 1.66807
lowerneck -4.96275 -1.10221 1.11102
upperneck 8.93002 -1.37215 -2.1848
head 3.75864 -0.73594 -0.984185
rclavicle -2.56654e-015 4.37326e-015
rhumerus -15.2723 4.95102 -85.8493
rradius 42.5643
rwrist -15.127
rhand -14.7769 -35.6933
rfingers 7.12502
rthumb 11.3799 -65.3645
lclavicle -2.56654e-015 4.37326e-015
lhumerus -61.6468 27.3103 53.5703
lradius 11.0214
lwrist -52.2079
lhand -3.53432 -13.7728
lfingers 7.12502
lthumb 22.2011 14.9723
rfemur -15.3084 -7.6879 24.2868
rtibia 28.4007
rfoot -29.1231 10.957
rtoes -4.32837
lfemur -49.1338 3.19432 -21.4695
ltibia 33.7509
lfoot -10.3823 8.08725
ltoes -9.12266
148
root -0.126292 16.3093 -13.2014 18.181 -1.13955 -0.00657536
lowerback -15.5036 1.08546 -0.625673
upperback -5.44039 1.4873 0.93297
thorax 2.87786 0.750474 1.59333
lowerneck -5.11624 -1.01553 1.23967
upperneck 8.88583 -1.2555 -2.32486
head 3.77472 -0.680564 -1.04941
rclavicle -2.148e-014 -3.97569e-016
rhumerus -14.23 5.87763 -85.6977
rradius 43.6096
rwrist -15.6076
rhand -15.0814 -36.7863
rfingers 7.12502
rthumb 11.0862 -66.4735
lclavicle -2.148e-014 -3.97569e-016
lhumerus -63.0361 27.259 52.3375
lradius 11.25
lwrist -51.5563
lhand -3.28896 -13.5801
lfingers 7.12502
lthumb 22.4366 15.1367
rfemur -13.9423 -7.75536 24.1438
rtibia 27.3253
rfoot -29.1009 12.0124
rtoes -4.32256
lfemur -49.1045 3.10768 -20.916
ltibia 30.2249
lfoot -10.6574 8.02878
ltoes -5.94956
